<svg width="91" height="20" viewBox="0 0 91 20" fill="none" xmlns="http://www.w3.org/2000/svg">
<path d="M88.2827 19.9677C87.0375 19.9677 86.0307 18.9608 86.0572 17.7421C86.0307 16.5233 87.0375 15.543 88.2827 15.543C89.4485 15.543 90.4818 16.5233 90.4818 17.7421C90.4818 18.9608 89.4485 19.9677 88.2827 19.9677Z" fill="#E85102"/>
<path d="M84.4128 10.1453C84.4128 16.3981 80.518 20.0014 75.4574 20.0014C70.3439 20.0014 66.4756 16.3716 66.4756 10.1453C66.4756 3.8924 70.3439 0.289062 75.4574 0.289062C80.518 0.289062 84.4128 3.8924 84.4128 10.1453ZM80.359 10.1453C80.359 6.03851 78.4249 3.81292 75.4574 3.81292C72.49 3.81292 70.5293 6.03851 70.5293 10.1453C70.5293 14.252 72.49 16.4776 75.4574 16.4776C78.4249 16.4776 80.359 14.252 80.359 10.1453Z" fill="white"/>
<path d="M52.8057 19.7294V0.546875H56.7799V16.444H65.0464V19.7294H52.8057Z" fill="white"/>
<path d="M37.9932 19.7294V0.546875H41.9674V16.444H50.2339V19.7294H37.9932Z" fill="white"/>
<path d="M16.0031 0.546875V19.7294H12.5587L4.13324 7.54159H3.97427V19.7294H0V0.546875H3.49736L11.8698 12.7346H12.0553V0.546875H16.0031Z" fill="white"/>
<path d="M28.9126 0.488281H25.514L18.6084 19.1722H22.0769L27.2133 4.48161L32.3479 19.1722H35.8182L28.9126 0.488281Z" fill="white"/>
<path d="M29.2562 0L36.5265 19.6705H31.9977L31.8826 19.34L27.2132 5.98116L22.4272 19.6705H17.9004L25.1707 0H29.2562ZM18.6085 19.1772H22.077L27.2137 4.48683L32.3479 19.1772H35.8183L28.9127 0.493291H25.5141L18.6085 19.1772Z" fill="white"/>
</svg>
