<svg width="41" height="57" viewBox="0 0 41 57" fill="none" xmlns="http://www.w3.org/2000/svg">
<path d="M20.5303 0.00878906C34.93 0.36534 40.6151 17.9841 40.6152 30.7959C40.6152 43.7392 32.5815 56.2362 26.333 56.2363C20.0846 56.2363 20.0849 48.6496 21.8701 46.418C23.6554 44.1864 25.8867 40.1691 25.8867 37.4912C25.8867 34.8542 25.0211 28.7541 20.3066 28.5684C15.5939 28.7557 14.7285 34.8545 14.7285 37.4912C14.7287 40.169 16.9599 44.1854 18.7451 46.417C20.5304 48.6486 20.5307 56.2363 14.2822 56.2363C8.03374 56.2363 0 43.7392 0 30.7959C7.165e-05 17.9843 5.68484 0.365095 20.084 0.0078125V0C20.1557 0 20.2276 0.0030631 20.2988 0.00390625C20.3757 0.0029213 20.4529 2.06557e-06 20.5303 0V0.00878906Z" fill="#FC8658"/>
<circle cx="20.5306" cy="21.4241" r="4.46321" fill="#FEF4F2"/>
<mask id="mask0_97_1994" style="mask-type:alpha" maskUnits="userSpaceOnUse" x="0" y="0" width="41" height="57">
<path d="M20.5303 0.00878906C34.93 0.36534 40.6151 17.9841 40.6152 30.7959C40.6152 43.7392 32.5815 56.2362 26.333 56.2363C20.0846 56.2363 20.0849 48.6496 21.8701 46.418C23.6554 44.1864 25.8867 40.1691 25.8867 37.4912C25.8867 34.8542 25.0211 28.7541 20.3066 28.5684C15.5939 28.7557 14.7285 34.8545 14.7285 37.4912C14.7287 40.169 16.9599 44.1854 18.7451 46.417C20.5304 48.6486 20.5307 56.2363 14.2822 56.2363C8.03374 56.2363 0 43.7392 0 30.7959C7.165e-05 17.9843 5.68484 0.365095 20.084 0.0078125V0C20.1557 0 20.2276 0.0030631 20.2988 0.00390625C20.3757 0.0029213 20.4529 2.06557e-06 20.5303 0V0.00878906Z" fill="#FC8658"/>
</mask>
<g mask="url(#mask0_97_1994)">
<path d="M53.5584 19.6379C53.5584 10.764 38.7714 3.57031 20.5307 3.57031C2.28995 3.57031 -12.4971 10.764 -12.4971 19.6379" stroke="#FEF4F2" stroke-width="1.78528"/>
<path d="M53.5584 28.5636C53.5584 19.6898 38.7714 12.4961 20.5307 12.4961C2.28995 12.4961 -12.4971 19.6898 -12.4971 28.5636" stroke="#FEF4F2" stroke-width="1.78528"/>
<path d="M53.5584 37.4894C53.5584 28.6156 38.7714 21.4219 20.5307 21.4219C2.28995 21.4219 -12.4971 28.6156 -12.4971 37.4894" stroke="#FEF4F2" stroke-width="1.78528"/>
<path d="M53.5584 46.4152C53.5584 37.5413 38.7714 30.3477 20.5307 30.3477C2.28995 30.3477 -12.4971 37.5413 -12.4971 46.4152" stroke="#FEF4F2" stroke-width="1.78528"/>
<path d="M53.5584 55.3449C53.5584 46.471 38.7714 39.2773 20.5307 39.2773C2.28995 39.2773 -12.4971 46.471 -12.4971 55.3449" stroke="#FEF4F2" stroke-width="1.78528"/>
<path d="M53.5584 64.2707C53.5584 55.3968 38.7714 48.2031 20.5307 48.2031C2.28995 48.2031 -12.4971 55.3968 -12.4971 64.2707" stroke="#FEF4F2" stroke-width="1.78528"/>
</g>
</svg>
